<svg width="158" height="30" viewBox="0 0 158 30" fill="none" xmlns="http://www.w3.org/2000/svg">
<path d="M21.6521 0.831399L30.1273 29.0989H23.6878L22.1922 23.9858H11.8474L10.3518 29.0989H3.91226L12.3875 0.831399H21.6521ZM17.3729 7.02531H16.7082L13.4261 18.3739H20.6135L17.3729 7.02531Z" fill="#212121"/>
<path d="M45.453 12.9698H37.4763V29.0989H31.4522V7.35787H45.453V12.9698Z" fill="#212121"/>
<path d="M56.0775 23.487H61.8939V29.0989H50.0535V12.9698H46.7298V7.35787H50.0535V0H56.0775V7.35787H61.8939V12.9698H56.0775V23.487Z" fill="#212121"/>
<path d="M78.6834 0.649902H85.1241L76.6473 28.9341H67.381L58.9043 0.649902H65.3449L71.7025 22.7366H72.3674L78.6834 0.649902Z" fill="white"/>
<path d="M94.0056 29.3501C84.3238 29.3501 82.8279 22.5702 82.8279 18.1196C82.8279 11.8388 85.4042 6.76429 92.5098 6.76429C99.4491 6.76429 102.025 11.5061 102.025 17.662V20.0745H89.0609C89.4764 22.5286 90.8061 23.7348 94.6289 23.7348C95.6678 23.7348 97.6623 23.7348 100.613 23.1525V28.6846C97.3714 29.3501 95.5847 29.3501 94.0056 29.3501ZM88.8947 16.0398H95.9586C95.7924 13.461 94.7536 12.3795 92.4266 12.3795C90.1828 12.3795 89.1024 13.5442 88.8947 16.0398Z" fill="white"/>
<path d="M117.772 12.7955H109.793V28.9341H103.768V7.18023H117.772V12.7955Z" fill="white"/>
<path d="M128.45 29.3501C125.209 29.3501 122.051 28.7262 119.018 26.688V20.6152C122.799 22.9861 125.999 23.7348 129.074 23.7348C130.694 23.7348 131.484 23.1525 131.484 22.1958C131.484 21.156 130.86 20.6568 127.827 20.2409C120.971 19.4506 119.018 16.539 119.018 13.2114C119.018 8.51125 122.924 6.76429 127.37 6.76429C130.154 6.76429 133.811 7.51298 135.847 8.9272V14.5424C132.813 13.045 129.24 12.3795 126.954 12.3795C125.749 12.3795 125.043 12.7539 125.043 13.7106C125.043 14.6256 125.583 15.1248 128.824 15.7071C135.099 16.7885 137.509 18.1612 137.509 22.4038C137.509 27.0624 133.312 29.3501 128.45 29.3501Z" fill="white"/>
<path d="M149.331 29.3501C139.649 29.3501 138.153 22.5702 138.153 18.1196C138.153 11.8388 140.729 6.76429 147.835 6.76429C154.774 6.76429 157.351 11.5061 157.351 17.662V20.0745H144.386C144.802 22.5286 146.131 23.7348 149.954 23.7348C150.993 23.7348 152.988 23.7348 155.938 23.1525V28.6846C152.697 29.3501 150.91 29.3501 149.331 29.3501ZM144.22 16.0398H151.284C151.118 13.461 150.079 12.3795 147.752 12.3795C145.508 12.3795 144.428 13.5442 144.22 16.0398Z" fill="white"/>
<path fill-rule="evenodd" clip-rule="evenodd" d="M58.0317 0H65.8337L72.0341 21.5408L78.194 0H85.9968L77.1305 29.5841H66.8981L58.0317 0ZM59.777 1.29983L67.8642 28.2842H76.1643L84.2516 1.29983H79.173L72.857 23.3865H71.214L64.8564 1.29983H59.777ZM85.5246 10.4755C84.1088 12.3731 83.4773 15.0524 83.4773 18.1196C83.4773 20.2922 83.8462 22.9394 85.317 25.0295C86.7581 27.0774 89.3356 28.7002 94.0058 28.7002H94.0128C95.4808 28.7002 97.1121 28.7002 99.9634 28.1512V23.9341C97.3753 24.3843 95.5927 24.3848 94.6291 24.3848C92.6706 24.3848 91.2192 24.08 90.1932 23.3562C89.1376 22.6114 88.6448 21.5057 88.4209 20.1831L88.2924 19.4246H101.376V17.662C101.376 14.6595 100.746 12.0992 99.3565 10.3025C97.9897 8.53474 95.8171 7.41421 92.5099 7.41421C89.1301 7.41421 86.9164 8.61002 85.5246 10.4755ZM84.4842 9.69776C86.1569 7.45584 88.7841 6.11438 92.5099 6.11438C96.1419 6.11438 98.7271 7.36474 100.383 9.5069C102.017 11.6201 102.675 14.5086 102.675 17.662V20.7244H89.8767C90.0955 21.4362 90.4359 21.9371 90.9413 22.2937C91.6398 22.7865 92.7647 23.0849 94.6291 23.0849H94.6317C95.6531 23.0849 97.599 23.0849 100.487 22.5149L101.262 22.3619V29.2147L100.743 29.3212C97.4423 29.999 95.6073 30 94.0058 30C88.9941 30 85.9828 28.2329 84.2554 25.7781C82.5578 23.3656 82.1788 20.3976 82.1788 18.1196C82.1788 14.906 82.8354 11.9076 84.4842 9.69776ZM121.887 8.76578C120.539 9.66696 119.667 11.0739 119.667 13.2114C119.667 14.7382 120.109 16.1076 121.292 17.2C122.496 18.3121 124.543 19.2082 127.901 19.5953L127.908 19.5961L127.915 19.597C129.427 19.8043 130.459 20.0436 131.116 20.4205C131.464 20.6203 131.737 20.8744 131.912 21.2054C132.085 21.5311 132.133 21.8734 132.133 22.1958C132.133 22.8834 131.834 23.4756 131.245 23.8659C130.694 24.2311 129.945 24.3848 129.074 24.3848C126.15 24.3848 123.128 23.7296 119.667 21.7606V26.3369C122.477 28.1348 125.403 28.7002 128.45 28.7002C130.791 28.7002 132.914 28.1478 134.432 27.0905C135.926 26.0498 136.86 24.5069 136.86 22.4038C136.86 20.4296 136.313 19.2503 135.138 18.3958C133.886 17.4856 131.855 16.8889 128.714 16.3476L128.71 16.3468C127.095 16.0566 126.044 15.772 125.394 15.3966C125.051 15.1988 124.782 14.9554 124.609 14.6396C124.437 14.3252 124.394 14.0022 124.394 13.7106C124.394 13.0446 124.656 12.4913 125.193 12.1416C125.677 11.8259 126.308 11.7296 126.955 11.7296C129.1 11.7296 132.297 12.2874 135.198 13.529V9.27866C134.292 8.72017 133.072 8.26767 131.738 7.94743C130.269 7.59494 128.709 7.41421 127.37 7.41421C125.216 7.41421 123.272 7.83994 121.887 8.76578ZM121.166 7.68482C122.846 6.56213 125.078 6.11438 127.37 6.11438C128.815 6.11438 130.476 6.308 132.04 6.68342C133.597 7.05689 135.106 7.62189 136.217 8.39325L136.496 8.58712V15.5876L135.56 15.1253C132.62 13.6744 129.146 13.0295 126.955 13.0295C126.396 13.0295 126.071 13.1204 125.901 13.231C125.783 13.3077 125.692 13.4199 125.692 13.7106C125.692 13.8765 125.717 13.959 125.747 14.0138C125.776 14.0671 125.845 14.1565 126.043 14.2707C126.473 14.519 127.312 14.775 128.937 15.0671C132.07 15.6071 134.38 16.2375 135.901 17.3442C136.636 17.8786 137.172 18.5114 137.537 19.2593C137.514 18.8652 137.504 18.4836 137.504 18.1196C137.504 14.906 138.161 11.9076 139.809 9.69776C141.482 7.45584 144.109 6.11438 147.835 6.11438C151.467 6.11438 154.052 7.36474 155.709 9.5069C157.342 11.6201 158 14.5086 158 17.662V20.7244H145.202C145.421 21.4362 145.761 21.9371 146.267 22.2937C146.965 22.7865 148.09 23.0849 149.954 23.0849H149.957C150.978 23.0849 152.924 23.0849 155.812 22.5149L156.587 22.3619V29.2147L156.068 29.3212C152.768 29.999 150.933 30 149.331 30C144.319 30 141.308 28.2329 139.581 25.7781C138.924 24.8453 138.465 23.8294 138.149 22.8024C138.034 25.1608 136.898 26.9563 135.174 28.1574C133.378 29.4085 130.972 30 128.45 30C125.12 30 121.825 29.3568 118.656 27.2277L118.369 27.0345V19.4413L119.363 20.0645C123.044 22.3724 126.124 23.0849 129.074 23.0849C129.823 23.0849 130.279 22.9475 130.528 22.7822C130.739 22.6422 130.835 22.465 130.835 22.1958C130.835 21.9983 130.804 21.8883 130.766 21.815C130.729 21.7469 130.657 21.6553 130.47 21.5483C130.058 21.312 129.263 21.0941 127.746 20.8857C124.252 20.4821 121.897 19.5276 120.411 18.1553C118.969 16.8228 118.417 15.1634 118.372 13.4454H110.443V29.5841H103.119V6.53033H118.421V12.2634C118.656 10.1944 119.67 8.68523 121.166 7.68482ZM140.85 10.4755C139.434 12.3731 138.803 15.0524 138.803 18.1196C138.803 20.2922 139.172 22.9394 140.642 25.0295C142.083 27.0774 144.661 28.7002 149.331 28.7002H149.338C150.806 28.7002 152.437 28.7002 155.289 28.1512V23.9341C152.701 24.3843 150.918 24.3848 149.954 24.3848C147.996 24.3848 146.544 24.08 145.519 23.3562C144.463 22.6114 143.97 21.5057 143.746 20.1831L143.618 19.4246H156.701V17.662C156.701 14.6595 156.071 12.0992 154.682 10.3025C153.315 8.53474 151.142 7.41421 147.835 7.41421C144.455 7.41421 142.242 8.61002 140.85 10.4755ZM104.418 7.83016V28.2842H109.144V12.1456H117.122V7.83016H104.418ZM89.4281 12.8245C90.1662 12.0525 91.1934 11.7296 92.4268 11.7296C93.6823 11.7296 94.7284 12.0217 95.4703 12.7914C96.1985 13.5468 96.5196 14.647 96.6067 15.998L96.6512 16.6898H88.1892L88.2478 15.9859C88.3574 14.6685 88.705 13.5809 89.4281 12.8245ZM89.6325 15.3899C89.7742 14.6084 90.0292 14.0758 90.3663 13.7232C90.7814 13.289 91.4163 13.0295 92.4268 13.0295C93.4982 13.0295 94.135 13.2781 94.5358 13.6939C94.8656 14.0361 95.1112 14.5682 95.2376 15.3899H89.6325ZM144.753 12.8245C145.491 12.0525 146.519 11.7296 147.752 11.7296C149.008 11.7296 150.054 12.0217 150.796 12.7914C151.524 13.5468 151.845 14.647 151.932 15.998L151.977 16.6898H143.514L143.573 15.9859C143.683 14.6685 144.03 13.5809 144.753 12.8245ZM144.958 15.3899H150.563C150.436 14.5682 150.191 14.0361 149.861 13.6939C149.46 13.2781 148.823 13.0295 147.752 13.0295C146.742 13.0295 146.107 13.289 145.692 13.7232C145.354 14.0758 145.099 14.6084 144.958 15.3899Z" fill="#212121"/>
<path d="M9.83688 5.81831V10.3594H14.3765V15.0392H9.83688V19.5803H5.1586V15.0392H0.618942V10.3594H5.1586V5.81831H9.83688Z" fill="white"/>
<path fill-rule="evenodd" clip-rule="evenodd" d="M4.53966 5.1993H10.4556V9.7404H14.9952V15.6582H10.4556V20.1993H4.53966V15.6582H0V9.7404H4.53966V5.1993ZM5.7773 6.43734V10.9784H1.23764V14.4202H5.7773V18.9613H9.21794V14.4202H13.7576V10.9784H9.21794V6.43734H5.7773Z" fill="#212121"/>
</svg>
