<svg width="225" height="48" viewBox="0 0 225 48" fill="none" xmlns="http://www.w3.org/2000/svg">
<rect x="0.5" y="0.5" width="224" height="47" rx="23.5" fill="white"/>
<path d="M31.584 13.24L38.112 35H33.152L32 31.064H24.032L22.88 35H17.92L24.448 13.24H31.584ZM28.288 18.008H27.776L25.248 26.744H30.784L28.288 18.008ZM56.708 28.408H48.58V35H43.94V13.24H51.844C58.756 13.24 61.028 16.152 61.028 20.088C61.028 23.608 59.076 25.752 54.756 25.848V26.36H61.348V35H56.708V28.408ZM51.844 17.56H48.58V24.088H51.844C55.236 24.088 56.388 23.384 56.388 20.888C56.388 18.328 55.236 17.56 51.844 17.56ZM83.0523 17.56H77.1003V35H72.4603V17.56H66.4763V13.24H83.0523V17.56Z" fill="#5D5FEF"/>
<path d="M31.584 13.24L32.5418 12.9527L32.328 12.24H31.584V13.24ZM38.112 35V36H39.456L39.0698 34.7127L38.112 35ZM33.152 35L32.1923 35.2809L32.4027 36H33.152V35ZM32 31.064L32.9597 30.7831L32.7493 30.064H32V31.064ZM24.032 31.064V30.064H23.2827L23.0723 30.7831L24.032 31.064ZM22.88 35V36H23.6293L23.8397 35.2809L22.88 35ZM17.92 35L16.9622 34.7127L16.576 36H17.92V35ZM24.448 13.24V12.24H23.704L23.4902 12.9527L24.448 13.24ZM28.288 18.008L29.2495 17.7333L29.0423 17.008H28.288V18.008ZM27.776 18.008V17.008H27.0244L26.8154 17.73L27.776 18.008ZM25.248 26.744L24.2874 26.466L23.9176 27.744H25.248V26.744ZM30.784 26.744V27.744H32.1097L31.7455 26.4693L30.784 26.744ZM30.6262 13.5273L37.1542 35.2873L39.0698 34.7127L32.5418 12.9527L30.6262 13.5273ZM38.112 34H33.152V36H38.112V34ZM34.1117 34.7191L32.9597 30.7831L31.0403 31.3449L32.1923 35.2809L34.1117 34.7191ZM32 30.064H24.032V32.064H32V30.064ZM23.0723 30.7831L21.9203 34.7191L23.8397 35.2809L24.9917 31.3449L23.0723 30.7831ZM22.88 34H17.92V36H22.88V34ZM18.8778 35.2873L25.4058 13.5273L23.4902 12.9527L16.9622 34.7127L18.8778 35.2873ZM24.448 14.24H31.584V12.24H24.448V14.24ZM28.288 17.008H27.776V19.008H28.288V17.008ZM26.8154 17.73L24.2874 26.466L26.2086 27.022L28.7366 18.286L26.8154 17.73ZM25.248 27.744H30.784V25.744H25.248V27.744ZM31.7455 26.4693L29.2495 17.7333L27.3265 18.2827L29.8225 27.0187L31.7455 26.4693ZM56.708 28.408H57.708V27.408H56.708V28.408ZM48.58 28.408V27.408H47.58V28.408H48.58ZM48.58 35V36H49.58V35H48.58ZM43.94 35H42.94V36H43.94V35ZM43.94 13.24V12.24H42.94V13.24H43.94ZM54.756 25.848L54.7338 24.8482L53.756 24.87V25.848H54.756ZM54.756 26.36H53.756V27.36H54.756V26.36ZM61.348 26.36H62.348V25.36H61.348V26.36ZM61.348 35V36H62.348V35H61.348ZM56.708 35H55.708V36H56.708V35ZM48.58 17.56V16.56H47.58V17.56H48.58ZM48.58 24.088H47.58V25.088H48.58V24.088ZM56.708 27.408H48.58V29.408H56.708V27.408ZM47.58 28.408V35H49.58V28.408H47.58ZM48.58 34H43.94V36H48.58V34ZM44.94 35V13.24H42.94V35H44.94ZM43.94 14.24H51.844V12.24H43.94V14.24ZM51.844 14.24C55.1842 14.24 57.2035 14.9473 58.3795 15.9492C59.5237 16.9241 60.028 18.3156 60.028 20.088H62.028C62.028 17.9244 61.3963 15.8919 59.6765 14.4268C57.9885 12.9887 55.4158 12.24 51.844 12.24V14.24ZM60.028 20.088C60.028 21.6653 59.5946 22.7856 58.8191 23.531C58.0335 24.286 56.7444 24.8036 54.7338 24.8482L54.7782 26.8478C57.0876 26.7964 58.9345 26.194 60.2049 24.973C61.4854 23.7424 62.028 22.0307 62.028 20.088H60.028ZM53.756 25.848V26.36H55.756V25.848H53.756ZM54.756 27.36H61.348V25.36H54.756V27.36ZM60.348 26.36V35H62.348V26.36H60.348ZM61.348 34H56.708V36H61.348V34ZM57.708 35V28.408H55.708V35H57.708ZM51.844 16.56H48.58V18.56H51.844V16.56ZM47.58 17.56V24.088H49.58V17.56H47.58ZM48.58 25.088H51.844V23.088H48.58V25.088ZM51.844 25.088C53.5368 25.088 54.9618 24.9284 55.9534 24.2489C57.0659 23.4863 57.388 22.2712 57.388 20.888H55.388C55.388 22.0008 55.1341 22.3857 54.8227 22.5991C54.3902 22.8956 53.5432 23.088 51.844 23.088V25.088ZM57.388 20.888C57.388 19.481 57.0708 18.2424 55.9718 17.4521C54.9772 16.7369 53.5457 16.56 51.844 16.56V18.56C53.5343 18.56 54.3748 18.7671 54.8042 19.0759C55.1292 19.3096 55.388 19.735 55.388 20.888H57.388ZM83.0523 17.56V18.56H84.0523V17.56H83.0523ZM77.1003 17.56V16.56H76.1003V17.56H77.1003ZM77.1003 35V36H78.1003V35H77.1003ZM72.4603 35H71.4603V36H72.4603V35ZM72.4603 17.56H73.4603V16.56H72.4603V17.56ZM66.4762 17.56H65.4762V18.56H66.4762V17.56ZM66.4762 13.24V12.24H65.4762V13.24H66.4762ZM83.0523 13.24H84.0523V12.24H83.0523V13.24ZM83.0523 16.56H77.1003V18.56H83.0523V16.56ZM76.1003 17.56V35H78.1003V17.56H76.1003ZM77.1003 34H72.4603V36H77.1003V34ZM73.4603 35V17.56H71.4603V35H73.4603ZM72.4603 16.56H66.4762V18.56H72.4603V16.56ZM67.4762 17.56V13.24H65.4762V17.56H67.4762ZM66.4762 14.24H83.0523V12.24H66.4762V14.24ZM82.0523 13.24V17.56H84.0523V13.24H82.0523Z" fill="#5D5FEF"/>
<path d="M86.92 24.984H91.56V29.304H86.92V24.984Z" fill="#5D5FEF"/>
<path d="M86.92 24.984V23.984H85.92V24.984H86.92ZM91.56 24.984H92.56V23.984H91.56V24.984ZM91.56 29.304V30.304H92.56V29.304H91.56ZM86.92 29.304H85.92V30.304H86.92V29.304ZM86.92 25.984H91.56V23.984H86.92V25.984ZM90.56 24.984V29.304H92.56V24.984H90.56ZM91.56 28.304H86.92V30.304H91.56V28.304ZM87.92 29.304V24.984H85.92V29.304H87.92Z" fill="#5D5FEF"/>
<path d="M111.152 13.24H116.112L109.584 35H102.448L95.92 13.24H100.88L105.776 30.232H106.288L111.152 13.24ZM126.58 30.68H136.436V35H121.94V13.24H136.436V17.56H126.58V21.88H134.356V26.2H126.58V30.68ZM155.939 28.408H147.811V35H143.171V13.24H151.075C157.987 13.24 160.259 16.152 160.259 20.088C160.259 23.608 158.307 25.752 153.987 25.848V26.36H160.579V35H155.939V28.408ZM151.075 17.56H147.811V24.088H151.075C154.467 24.088 155.619 23.384 155.619 20.888C155.619 18.328 154.467 17.56 151.075 17.56ZM176.941 35.32C173.869 35.32 169.197 34.168 166.989 32.472V27.864C169.997 29.912 174.061 31 176.941 31C179.789 31 181.197 30.616 181.197 28.824C181.197 27.224 179.661 26.776 175.309 25.784C169.741 24.504 167.309 23.096 167.309 19.448C167.309 14.808 170.669 12.92 175.789 12.92C178.381 12.92 181.965 13.688 184.109 14.744V19.096C180.909 17.944 177.421 17.24 175.373 17.24C173.517 17.24 171.949 17.496 171.949 19.096C171.949 20.44 173.613 20.952 176.653 21.624C182.797 23.032 185.837 23.896 185.837 28.408C185.837 33.336 182.029 35.32 176.941 35.32ZM196.711 30.68H206.567V35H192.071V13.24H206.567V17.56H196.711V21.88H204.487V26.2H196.711V30.68Z" fill="#5D5FEF"/>
<rect x="0.5" y="0.5" width="224" height="47" rx="23.5" stroke="#5D5FEF"/>
</svg>
