<svg width="202" height="40" viewBox="0 0 202 40" fill="none" xmlns="http://www.w3.org/2000/svg">
<path d="M29.636 10.96L35.348 30H31.008L30 26.556H23.028L22.02 30H17.68L23.392 10.96H29.636ZM26.752 15.132H26.304L24.092 22.776H28.936L26.752 15.132ZM51.6195 24.232H44.5075V30H40.4475V10.96H47.3635C53.4115 10.96 55.3995 13.508 55.3995 16.952C55.3995 20.032 53.6915 21.908 49.9115 21.992V22.44H55.6795V30H51.6195V24.232ZM47.3635 14.74H44.5075V20.452H47.3635C50.3315 20.452 51.3395 19.836 51.3395 17.652C51.3395 15.412 50.3315 14.74 47.3635 14.74ZM74.6707 14.74H69.4627V30H65.4027V14.74H60.1667V10.96H74.6707V14.74Z" fill="#9747FF"/>
<path d="M78.68 21.236H82.74V25.016H78.68V21.236Z" fill="#9747FF"/>
<path d="M100.008 10.96H104.348L98.636 30H92.392L86.68 10.96H91.02L95.304 25.828H95.752L100.008 10.96ZM113.507 26.22H122.131V30H109.447V10.96H122.131V14.74H113.507V18.52H120.312V22.3H113.507V26.22ZM139.197 24.232H132.085V30H128.025V10.96H134.941C140.989 10.96 142.977 13.508 142.977 16.952C142.977 20.032 141.269 21.908 137.489 21.992V22.44H143.257V30H139.197V24.232ZM134.941 14.74H132.085V20.452H134.941C137.909 20.452 138.917 19.836 138.917 17.652C138.917 15.412 137.909 14.74 134.941 14.74ZM157.573 30.28C154.885 30.28 150.797 29.272 148.865 27.788V23.756C151.497 25.548 155.053 26.5 157.573 26.5C160.065 26.5 161.297 26.164 161.297 24.596C161.297 23.196 159.953 22.804 156.145 21.936C151.273 20.816 149.145 19.584 149.145 16.392C149.145 12.332 152.085 10.68 156.565 10.68C158.833 10.68 161.969 11.352 163.845 12.276V16.084C161.045 15.076 157.993 14.46 156.201 14.46C154.577 14.46 153.205 14.684 153.205 16.084C153.205 17.26 154.661 17.708 157.321 18.296C162.697 19.528 165.357 20.284 165.357 24.232C165.357 28.544 162.025 30.28 157.573 30.28ZM174.872 26.22H183.496V30H170.812V10.96H183.496V14.74H174.872V18.52H181.676V22.3H174.872V26.22Z" fill="#9747FF"/>
<rect x="0.5" y="0.5" width="201" height="39" rx="19.5" stroke="#9747FF"/>
</svg>
